<?xml version="1.0" standalone="no"?>
<!DOCTYPE svg PUBLIC "-//W3C//DTD SVG 20010904//EN"
 "http://www.w3.org/TR/2001/REC-SVG-20010904/DTD/svg10.dtd">
<svg version="1.0" xmlns="http://www.w3.org/2000/svg"
 width="705.000000pt" height="359.000000pt" viewBox="0 0 705.000000 359.000000"
 preserveAspectRatio="xMidYMid meet">

<g transform="translate(0.000000,359.000000) scale(0.100000,-0.100000)"
fill="#000000" stroke="none">
<path d="M0 1795 l0 -1795 3525 0 3525 0 0 1795 0 1795 -3525 0 -3525 0 0
-1795z m1190 1686 c0 -48 3 -60 18 -64 9 -3 -1 -5 -23 -5 -22 0 -32 2 -22 5
13 4 17 15 17 58 0 43 -4 54 -17 58 -14 4 -12 5 5 6 20 1 22 -3 22 -58z m1160
0 c0 -48 3 -60 18 -64 9 -3 -3 -5 -28 -5 -25 0 -37 2 -27 5 13 4 17 15 17 58
0 33 -5 55 -12 58 -7 3 -3 6 10 6 20 1 22 -3 22 -58z m210 52 c0 -5 -7 -17
-15 -27 -8 -11 -15 -34 -15 -51 0 -17 7 -40 15 -51 16 -21 19 -34 7 -34 -14 0
-42 57 -42 85 0 28 28 85 42 85 4 0 8 -3 8 -7z m80 -3 c0 -5 -4 -10 -10 -10
-5 0 -10 5 -10 10 0 6 5 10 10 10 6 0 10 -4 10 -10z m976 -61 c3 -24 -1 -44
-16 -68 -25 -40 -37 -36 -15 5 19 37 19 61 0 98 -20 39 -19 44 5 20 11 -11 23
-36 26 -55z m-3183 30 c22 -2 22 -2 0 -6 -19 -4 -23 -11 -23 -38 0 -27 5 -35
23 -38 19 -5 19 -5 -3 -4 -21 2 -25 8 -28 40 -2 26 -8 37 -20 38 -15 1 -15 2
1 6 9 2 18 12 18 21 1 15 2 15 6 0 2 -10 14 -19 26 -19z m380 0 c22 -2 22 -2
0 -6 -17 -3 -23 -12 -24 -31 l-2 -27 -4 25 c-3 14 -10 28 -17 32 -8 6 -8 8 2
8 6 0 13 8 13 18 1 16 2 16 6 0 2 -10 14 -19 26 -19z m2030 0 c22 -2 22 -2 0
-6 -19 -4 -23 -11 -23 -38 0 -27 5 -35 23 -38 19 -5 19 -5 -3 -4 -21 2 -25 8
-28 40 -2 26 -8 37 -20 38 -15 1 -15 2 1 6 9 2 18 12 18 21 1 15 2 15 6 0 2
-10 14 -19 26 -19z m-1819 13 c2 -4 -8 -8 -22 -7 -25 0 -27 -3 -27 -40 0 -37
2 -40 27 -40 17 1 24 -3 19 -8 -5 -5 -21 -7 -35 -3 -33 8 -44 47 -22 81 16 24
49 34 60 17z m466 -2 c-12 -8 -12 -10 -1 -10 8 0 12 -3 8 -6 -9 -9 -28 6 -22
17 4 5 12 9 18 9 7 0 6 -4 -3 -10z m1540 0 c-12 -8 -12 -10 -1 -10 8 0 12 -3
8 -6 -9 -9 -28 6 -22 17 4 5 12 9 18 9 7 0 6 -4 -3 -10z m-2707 -17 c-30 -6
-29 -21 3 -33 31 -12 29 -44 -4 -46 -19 -1 -19 -1 -2 3 27 6 25 21 -5 35 -38
17 -32 49 9 47 19 -2 19 -2 -1 -6z m224 -13 c4 -13 3 -13 -6 0 -16 23 -45 0
-52 -41 -6 -32 -6 -32 -8 11 -1 45 0 46 31 45 19 0 33 -6 35 -15z m61 -58 c11
2 19 17 23 43 l6 40 2 -46 c1 -44 0 -46 -26 -45 -26 1 -28 4 -29 44 l-1 42 4
-41 c3 -31 8 -40 21 -37z m106 68 c-12 -5 -25 -13 -29 -19 -11 -19 5 -51 28
-52 20 -1 20 -2 3 -6 -20 -5 -46 19 -46 43 0 18 29 44 48 43 13 0 12 -2 -4 -9z
m406 -4 c28 -35 -11 -93 -47 -70 -36 22 -23 84 17 84 10 0 23 -7 30 -14z m188
2 c7 -7 12 -26 12 -44 0 -30 -2 -32 -32 -31 -26 2 -33 6 -33 22 0 13 8 21 23
23 12 2 22 10 22 19 0 11 -7 14 -25 11 -13 -3 -22 -1 -19 3 8 13 38 11 52 -3z
m296 3 c4 -5 -2 -7 -12 -4 -25 6 -45 -21 -37 -47 5 -17 13 -21 31 -17 13 2 21
0 18 -4 -10 -17 -53 -9 -64 10 -14 27 -13 37 6 55 17 18 50 21 58 7z m102 -2
c3 -6 3 -13 -1 -17 -3 -3 -10 0 -15 8 -13 21 -40 -6 -40 -41 0 -16 -4 -29 -10
-29 -5 0 -10 20 -10 43 0 43 1 44 35 45 19 1 37 -3 41 -9z m92 -16 c3 -20 -1
-23 -28 -23 -40 0 -36 -22 6 -31 l29 -7 -33 -1 c-40 -1 -61 33 -42 68 16 30
64 26 68 -6z m90 15 c7 -7 12 -26 12 -44 0 -31 -2 -32 -37 -31 -31 2 -38 6
-38 22 0 14 8 21 28 23 32 4 31 27 -1 26 -12 0 -19 3 -16 8 8 12 38 10 52 -4z
m108 1 c3 -6 3 -13 -1 -17 -3 -3 -10 0 -15 7 -15 25 -40 4 -40 -34 0 -19 -4
-35 -10 -35 -5 0 -10 20 -10 43 0 43 1 44 35 45 19 1 37 -3 41 -9z m184 3 c0
-5 -10 -8 -22 -8 -19 1 -23 -4 -23 -29 0 -25 4 -30 23 -29 12 0 22 -3 22 -8 0
-16 -52 -4 -63 14 -17 26 7 68 38 68 14 0 25 -4 25 -8z m103 -14 c17 -26 -7
-68 -38 -68 -33 0 -52 38 -35 69 13 26 57 26 73 -1z m185 10 c7 -7 12 -26 12
-44 0 -31 -2 -32 -37 -31 -31 2 -38 6 -38 22 0 14 8 21 28 23 32 4 31 27 -1
26 -12 0 -19 3 -16 8 8 12 38 10 52 -4z m172 -27 c0 -22 5 -42 13 -44 6 -3 -4
-5 -23 -5 -19 0 -27 2 -17 5 12 3 17 14 17 38 0 24 -5 35 -17 38 -14 4 -12 5
5 6 19 1 22 -4 22 -38z m60 -16 l-8 -40 -1 50 c-1 29 3 45 8 40 5 -6 6 -28 1
-50z m56 7 l1 -42 -4 39 c-3 26 -10 41 -21 45 -12 3 -12 4 3 3 16 -2 20 -10
21 -45z m382 36 c22 -22 13 -38 -19 -38 -36 0 -35 -21 2 -31 l24 -7 -25 -1
c-31 -1 -50 16 -50 44 0 25 18 45 40 45 9 0 21 -5 28 -12z m108 1 c3 -6 3 -13
-1 -17 -3 -3 -10 -1 -14 6 -14 24 -41 2 -41 -34 0 -19 -4 -34 -10 -34 -5 0
-10 20 -10 43 0 43 1 44 35 45 19 1 37 -3 41 -9z m92 -9 c4 -13 3 -13 -11 -2
-23 19 -37 6 -37 -34 0 -19 -4 -34 -10 -34 -5 0 -10 20 -10 44 0 43 1 44 32
43 18 -1 33 -8 36 -17z m92 6 c28 -35 -11 -93 -47 -70 -36 22 -23 84 17 84 10
0 23 -7 30 -14z m104 -1 c3 -8 1 -15 -3 -15 -5 0 -11 5 -13 12 -9 26 -38 -2
-38 -37 0 -19 -4 -35 -10 -35 -5 0 -10 20 -10 43 0 43 1 44 34 45 22 1 36 -4
40 -13z m-2713 -73 c-7 -2 -18 1 -23 6 -8 8 -4 9 13 5 13 -4 18 -8 10 -11z
m1257 -39 c-16 -2 -40 -2 -55 0 -16 2 -3 4 27 4 30 0 43 -2 28 -4z m-1735 -70
c-7 -2 -13 -18 -13 -33 0 -16 -5 -32 -11 -36 -8 -4 -8 -9 0 -17 6 -6 11 -23
11 -38 0 -15 6 -30 13 -33 6 -3 3 -5 -8 -3 -14 1 -21 11 -23 32 -2 17 -10 35
-18 41 -13 10 -13 12 1 18 9 3 15 18 15 34 0 33 7 42 29 41 10 0 12 -2 4 -6z
m1237 -292 c0 -38 4 -61 13 -64 6 -3 -4 -5 -23 -5 -19 0 -29 2 -22 5 7 3 12
25 12 58 0 33 -5 55 -12 58 -7 3 -3 6 10 6 20 1 22 -3 22 -58z m580 0 c0 -38
4 -61 13 -64 6 -3 -6 -5 -28 -5 -22 0 -32 2 -22 5 13 4 17 15 17 58 0 33 -5
55 -12 58 -7 3 -3 6 10 6 20 1 22 -3 22 -58z m1440 0 c0 -48 3 -60 18 -64 9
-3 -1 -5 -23 -5 -22 0 -32 2 -22 5 13 4 17 15 17 58 0 43 -4 54 -17 58 -14 4
-12 5 5 6 20 1 22 -3 22 -58z m680 0 c0 -38 4 -61 13 -64 6 -3 -6 -5 -28 -5
-22 0 -32 2 -22 5 13 4 17 15 17 58 0 43 -4 54 -17 58 -11 3 -7 5 10 6 27 1
27 0 27 -58z m90 0 c0 -48 3 -60 18 -64 9 -3 -1 -5 -23 -5 -22 0 -32 2 -22 5
13 4 17 15 17 58 0 43 -4 54 -17 58 -14 4 -12 5 5 6 20 1 22 -3 22 -58z m883
52 c-28 -5 -32 -42 -5 -44 16 -1 16 -2 0 -6 -13 -3 -19 -16 -20 -41 l-1 -37
-4 38 c-3 26 -9 37 -21 38 -15 1 -15 2 1 6 9 2 17 12 17 22 0 23 9 31 34 30
19 -2 19 -2 -1 -6z m79 -22 c-9 -16 -18 -28 -21 -26 -4 5 27 55 34 55 2 0 -4
-13 -13 -29z m968 -30 c0 -48 3 -60 18 -64 9 -3 -3 -5 -28 -5 -25 0 -37 2 -27
5 13 4 17 15 17 58 0 33 -5 55 -12 58 -7 3 -3 6 10 6 20 1 22 -3 22 -58z m289
0 c0 -10 -4 -7 -10 8 -5 14 -13 30 -17 36 -4 6 1 2 11 -8 9 -11 17 -27 16 -36z
m-5776 18 c22 -2 22 -2 0 -6 -17 -3 -23 -12 -24 -31 l-2 -27 -4 25 c-3 14 -10
28 -17 32 -8 6 -8 8 2 8 6 0 13 8 13 18 1 16 2 16 6 0 2 -10 14 -19 26 -19z
m390 0 c22 -2 22 -2 0 -6 -19 -4 -23 -11 -23 -38 0 -27 5 -35 23 -38 19 -5 19
-5 -3 -4 -21 2 -25 8 -28 40 -2 26 -8 37 -20 38 -15 1 -15 2 1 6 9 2 18 12 18
21 1 15 2 15 6 0 2 -10 14 -19 26 -19z m1435 11 c-7 -10 -14 -17 -17 -15 -4 4
18 35 25 35 2 0 -1 -9 -8 -20z m205 -11 c22 -2 22 -2 0 -6 -19 -4 -23 -11 -23
-38 0 -27 5 -35 23 -38 19 -5 19 -5 -3 -4 -21 2 -25 8 -28 40 -2 26 -8 37 -20
38 -15 1 -15 2 1 6 9 2 18 12 18 21 1 15 2 15 6 0 2 -10 14 -19 26 -19z m380
0 c22 -2 22 -2 0 -6 -18 -3 -23 -11 -23 -34 0 -21 6 -32 23 -39 22 -9 22 -9 1
-9 -23 -1 -34 16 -34 55 0 13 -6 24 -12 25 -10 0 -10 2 0 6 6 2 13 12 13 21 1
15 2 15 6 0 2 -10 14 -19 26 -19z m773 -24 c3 -18 1 -42 -5 -52 -9 -15 -10
-12 -5 14 4 20 0 43 -10 63 -12 26 -13 30 -1 20 8 -7 17 -27 21 -45z m662 35
c-7 -10 -14 -17 -17 -15 -4 4 18 35 25 35 2 0 -1 -9 -8 -20z m862 5 c0 -8 10
-16 23 -16 l22 -2 -22 -4 c-19 -4 -23 -11 -23 -38 0 -27 5 -35 23 -38 15 -4
12 -5 -8 -4 -27 2 -30 6 -33 40 -2 26 -8 37 -20 38 -15 1 -15 2 1 6 9 2 17 11
17 19 0 8 5 14 10 14 6 0 10 -7 10 -15z m380 0 c0 -8 10 -16 23 -16 l22 -2
-22 -4 c-18 -3 -23 -11 -23 -34 0 -21 6 -32 23 -39 21 -9 21 -9 -4 -9 -28 -1
-39 14 -39 55 0 13 -6 24 -12 25 -10 0 -10 2 0 6 6 2 12 11 12 19 0 8 5 14 10
14 6 0 10 -7 10 -15z m589 -19 c-3 -3 -11 5 -18 17 -13 21 -12 21 5 5 10 -10
16 -20 13 -22z m-5097 17 c-50 -10 -50 -86 0 -96 22 -4 22 -4 -2 -6 -34 -1
-50 16 -50 54 0 38 16 55 50 54 23 -2 23 -2 2 -6z m2042 -2 c3 -4 -6 -6 -19
-3 -19 3 -27 -2 -36 -21 -16 -35 4 -71 37 -64 13 2 21 0 18 -4 -8 -13 -48 -11
-62 3 -17 17 -15 64 4 82 17 17 50 21 58 7z m2696 0 c0 -5 -9 -7 -19 -4 -28 7
-47 -31 -32 -64 8 -18 17 -24 31 -20 11 3 20 1 20 -4 0 -15 -47 -10 -64 7 -20
20 -20 43 0 72 15 21 64 31 64 13z m-5422 -18 c-25 -6 -22 -18 8 -38 20 -13
23 -19 13 -31 -6 -8 -21 -13 -33 -13 -20 1 -20 2 -1 6 35 9 40 22 12 32 -38
14 -36 53 2 50 13 -1 13 -2 -1 -6z m173 -41 c-4 -54 -11 -53 -11 3 0 27 3 45
7 41 4 -4 6 -24 4 -44z m53 32 c6 -15 4 -15 -11 -3 -10 7 -20 15 -22 16 -2 2
3 3 11 3 9 0 19 -7 22 -16z m50 -64 c19 0 34 20 39 55 3 23 4 19 6 -15 1 -45
1 -46 -31 -45 -32 0 -33 1 -34 43 l-1 42 4 -40 c3 -24 9 -40 17 -40z m109 70
c-16 -6 -23 -18 -23 -35 0 -17 7 -29 23 -35 13 -5 16 -9 7 -9 -22 -1 -40 19
-40 44 0 25 18 45 40 44 9 0 6 -4 -7 -9z m416 -12 c12 -33 2 -57 -27 -65 -42
-10 -68 40 -36 71 22 23 53 20 63 -6z m189 -24 c3 -40 3 -41 -30 -40 -26 1
-33 5 -33 21 0 14 8 21 28 23 32 4 31 27 -1 26 -12 0 -19 3 -16 8 3 5 16 8 27
6 18 -2 23 -11 25 -44z m287 36 c4 -6 -1 -7 -11 -3 -11 4 -22 -1 -30 -12 -18
-24 0 -59 27 -52 10 3 17 1 13 -4 -8 -13 -38 -11 -52 3 -27 27 -7 78 29 78 10
0 21 -4 24 -10z m104 -12 c12 -32 2 -57 -25 -64 -30 -8 -54 11 -54 40 0 47 63
66 79 24z m189 -26 l3 -43 -33 3 c-25 2 -33 8 -33 23 0 13 8 21 23 23 12 2 22
10 22 19 0 11 -7 14 -25 11 -13 -3 -22 -1 -19 4 3 5 18 8 32 6 24 -3 27 -8 30
-46z m450 41 c-25 -6 -22 -18 8 -38 20 -13 23 -19 13 -31 -6 -8 -21 -13 -33
-13 -20 1 -20 2 -1 6 35 9 40 22 12 32 -38 14 -36 53 2 50 13 -1 13 -2 -1 -6z
m173 -41 c-4 -54 -11 -53 -11 3 0 27 3 45 7 41 4 -4 6 -24 4 -44z m53 32 c6
-15 4 -15 -11 -3 -10 7 -20 15 -22 16 -2 2 3 3 11 3 9 0 19 -7 22 -16z m53
-61 c15 -12 15 -13 1 -13 -20 0 -29 22 -26 63 l1 32 4 -35 c2 -19 11 -41 20
-47z m43 31 c0 -25 -4 -43 -8 -40 -7 4 -4 86 4 86 2 0 4 -21 4 -46z m63 36
c-16 -6 -23 -18 -23 -35 0 -17 7 -29 23 -35 13 -5 16 -9 7 -9 -22 -1 -40 19
-40 44 0 25 18 45 40 44 9 0 6 -4 -7 -9z m416 -12 c12 -33 2 -57 -27 -65 -42
-10 -68 40 -36 71 22 23 53 20 63 -6z m189 -24 c3 -40 3 -41 -30 -40 -26 1
-33 5 -33 21 0 14 8 21 28 23 32 4 31 27 -1 26 -12 0 -19 3 -16 8 3 5 16 8 27
6 18 -2 23 -11 25 -44z m365 39 c7 -13 -5 -83 -14 -83 -5 0 -10 17 -11 38 l-1
37 -4 -37 c-6 -53 -23 -47 -23 7 0 41 2 45 24 45 14 0 27 -3 29 -7z m35 -41
c2 -23 -1 -42 -6 -42 -6 0 -12 20 -14 45 -2 27 1 44 7 42 5 -2 11 -22 13 -45z
m80 36 c7 -7 12 -26 12 -44 0 -31 -2 -32 -37 -31 -31 2 -38 6 -38 22 0 14 8
21 28 23 32 4 31 27 -1 26 -12 0 -19 3 -16 8 8 12 38 10 52 -4z m290 0 c31
-31 3 -82 -40 -76 -18 2 -24 10 -26 37 -5 46 36 69 66 39z m96 4 c3 -5 -5 -8
-17 -8 -18 1 -22 -5 -22 -29 0 -24 4 -30 22 -29 12 0 20 -3 17 -8 -8 -12 -38
-10 -52 4 -27 27 -7 78 29 78 10 0 20 -4 23 -8z m169 1 c-30 -6 -29 -21 3 -33
31 -12 29 -44 -4 -46 -19 -1 -19 -1 -2 3 27 6 25 22 -5 33 -39 15 -32 51 9 49
19 -2 19 -2 -1 -6z m97 -32 c0 -29 5 -41 18 -44 9 -3 -1 -5 -23 -5 -22 0 -32
2 -22 5 20 5 24 68 5 76 -8 3 -6 6 5 6 13 1 17 -7 17 -38z m108 32 c-10 -2
-26 -2 -35 0 -10 3 -2 5 17 5 19 0 27 -2 18 -5z m100 -5 c22 -22 13 -38 -19
-38 -39 0 -34 -22 7 -31 28 -6 28 -7 4 -8 -15 0 -31 4 -38 11 -24 24 -8 78 23
78 6 0 16 -5 23 -12z m100 0 c16 -16 15 -53 -3 -68 -18 -15 -47 -10 -52 10 -4
12 -3 12 5 2 16 -23 47 -10 50 21 4 35 -25 49 -44 22 -12 -16 -14 -16 -14 -3
0 26 38 36 58 16z m286 3 c4 -5 -3 -7 -14 -4 -28 7 -25 -12 6 -32 20 -13 23
-19 13 -31 -13 -15 -59 -19 -59 -5 0 5 8 7 19 4 30 -8 35 16 7 27 -25 9 -34
29 -19 43 9 10 41 8 47 -2z m210 -6 c6 -18 -5 -20 -21 -4 -18 18 -33 1 -33
-37 0 -19 -4 -34 -10 -34 -5 0 -10 20 -10 43 0 43 1 44 34 45 22 1 36 -4 40
-13z m38 -22 c2 -26 8 -38 18 -38 10 0 16 12 18 38 4 52 22 47 22 -6 0 -43 -1
-44 -32 -45 -38 -1 -48 11 -48 56 0 45 18 40 22 -5z m142 29 c3 -5 -5 -8 -17
-8 -18 1 -22 -5 -22 -29 0 -24 4 -30 22 -29 12 0 20 -3 17 -8 -8 -12 -38 -10
-52 4 -27 27 -7 78 29 78 10 0 20 -4 23 -8z m384 -1 c18 -11 11 -61 -10 -75
-23 -14 -52 3 -56 33 -6 40 32 64 66 42z m200 -38 c3 -43 3 -43 -31 -43 -37 0
-54 19 -34 39 6 6 19 11 29 11 10 0 18 7 18 16 0 12 -7 15 -25 12 -13 -3 -22
-1 -19 4 3 5 18 8 32 6 24 -3 27 -8 30 -45z m264 32 c0 -5 -5 -11 -11 -13 -6
-2 -11 4 -11 13 0 9 5 15 11 13 6 -2 11 -8 11 -13z m-4219 -12 c-13 -2 -33 -2
-45 0 -13 2 -3 4 22 4 25 0 35 -2 23 -4z m154 -30 c-3 -10 -5 -4 -5 12 0 17 2
24 5 18 2 -7 2 -21 0 -30z m2020 0 c-3 -10 -5 -4 -5 12 0 17 2 24 5 18 2 -7 2
-21 0 -30z m1860 0 c-3 -10 -5 -4 -5 12 0 17 2 24 5 18 2 -7 2 -21 0 -30z
m-4034 0 c-13 -2 -33 -2 -45 0 -13 2 -3 4 22 4 25 0 35 -2 23 -4z m4127 -17
c0 -8 -9 -24 -20 -37 l-19 -24 17 37 c19 41 22 45 22 24z m100 -4 c0 -22 -19
-42 -39 -42 -14 1 -14 2 1 10 10 6 14 18 11 30 -4 14 0 20 11 20 9 0 16 -8 16
-18z m-5869 -10 c-7 -2 -18 1 -23 6 -8 8 -4 9 13 5 13 -4 18 -8 10 -11z m4513
-17 l17 -30 -20 24 c-12 13 -21 28 -21 34 0 12 0 11 24 -28z m-2694 0 c14 -19
14 -19 -2 -6 -10 7 -18 18 -18 24 0 6 1 8 3 6 1 -2 9 -13 17 -24z m2020 0 c14
-19 14 -19 -2 -6 -10 7 -18 18 -18 24 0 6 1 8 3 6 1 -2 9 -13 17 -24z m298 18
c-10 -2 -26 -2 -35 0 -10 3 -2 5 17 5 19 0 27 -2 18 -5z m-4135 -120 c-28 -5
-32 -42 -5 -44 16 -1 16 -2 0 -6 -13 -3 -19 -16 -20 -41 l-1 -37 -4 38 c-3 26
-9 37 -21 38 -15 1 -15 2 1 6 9 2 17 12 17 22 0 23 9 31 34 30 19 -2 19 -2 -1
-6z m178 -27 c-9 -18 -18 -29 -19 -24 -4 8 24 58 32 58 2 0 -4 -15 -13 -34z
m289 -25 c0 -48 3 -60 18 -64 9 -3 -1 -5 -23 -5 -22 0 -32 2 -22 5 13 4 17 15
17 58 0 43 -4 54 -17 58 -14 4 -12 5 5 6 20 1 22 -3 22 -58z m969 0 c0 -10 -4
-7 -10 8 -5 14 -13 30 -17 36 -4 6 1 2 11 -8 9 -11 17 -27 16 -36z m-426 -8
c-7 -71 -11 -75 -12 -10 -1 31 3 57 8 57 5 0 6 -21 4 -47z m63 -61 c-11 -10
-12 3 -7 58 l6 55 3 -54 c2 -29 1 -56 -2 -59z m57 10 c18 2 23 11 28 53 l7 50
-2 -49 c-1 -52 -19 -75 -50 -63 -12 5 -16 18 -14 59 l2 53 3 -53 c4 -48 6 -53
26 -50z m115 -5 c25 -4 24 -4 -5 -6 l-33 -1 2 58 2 57 3 -52 c4 -47 6 -52 31
-56z m90 0 c25 -4 24 -4 -5 -6 l-33 -1 2 58 2 57 3 -52 c4 -47 6 -52 31 -56z
m-1448 44 c0 -29 5 -41 18 -44 9 -3 -1 -5 -23 -5 -22 0 -32 2 -22 5 20 5 24
68 5 76 -8 3 -6 6 5 6 13 1 17 -7 17 -38z m414 30 c4 -5 -2 -7 -12 -4 -25 6
-45 -21 -37 -47 5 -17 13 -21 31 -17 13 2 21 0 18 -4 -10 -17 -53 -9 -64 10
-14 27 -13 37 6 55 17 18 50 21 58 7z m99 -13 c17 -26 -7 -68 -38 -68 -33 0
-52 38 -35 69 13 26 57 26 73 -1z m185 10 c7 -7 12 -26 12 -44 0 -31 -2 -32
-37 -31 -31 2 -38 6 -38 22 0 14 8 21 28 23 32 4 31 27 -1 26 -12 0 -19 3 -16
8 8 12 38 10 52 -4z m185 -15 c-13 -2 -33 -2 -45 0 -13 2 -3 4 22 4 25 0 35
-2 23 -4z m100 0 c-13 -2 -33 -2 -45 0 -13 2 -3 4 22 4 25 0 35 -2 23 -4z
m-100 -30 c-13 -2 -33 -2 -45 0 -13 2 -3 4 22 4 25 0 35 -2 23 -4z m100 0
c-13 -2 -33 -2 -45 0 -13 2 -3 4 22 4 25 0 35 -2 23 -4z m-678 -65 c4 -7 -3
-2 -14 11 -12 13 -21 31 -21 40 0 14 6 6 35 -51z m1245 48 c0 -8 -9 -24 -20
-37 l-19 -24 17 37 c19 41 22 45 22 24z m-1537 -133 c-7 -2 -13 -18 -13 -33 0
-16 -5 -32 -11 -36 -8 -4 -8 -9 0 -17 6 -6 11 -23 11 -38 0 -15 5 -30 10 -32
6 -3 5 -4 -2 -3 -7 1 -14 16 -16 32 -2 16 -10 34 -18 40 -13 10 -13 12 1 18 9
3 15 18 15 34 0 31 7 42 24 41 6 0 5 -3 -1 -6z m1024 -255 c-3 -7 -5 -2 -5 12
0 14 2 19 5 13 2 -7 2 -19 0 -25z m43 11 c0 -11 -4 -17 -10 -14 -5 3 -10 13
-10 21 0 8 5 14 10 14 6 0 10 -9 10 -21z m365 -24 c17 0 20 -7 21 -40 l1 -40
-4 38 c-6 53 -36 48 -44 -8 -5 -31 -6 -24 -6 30 -1 39 2 59 6 45 4 -16 13 -25
26 -25z m1635 -14 c0 -48 3 -60 18 -64 9 -3 -1 -5 -23 -5 -22 0 -32 2 -22 5
13 4 17 15 17 58 0 33 -5 55 -12 58 -8 3 -6 6 5 6 14 1 17 -8 17 -58z m480 0
c0 -48 3 -60 18 -64 9 -3 -1 -5 -23 -5 -22 0 -32 2 -22 5 13 4 17 15 17 58 0
33 -5 55 -12 58 -8 3 -6 6 5 6 14 1 17 -8 17 -58z m180 39 c0 -11 -4 -20 -10
-20 -5 0 -10 9 -10 20 0 11 5 20 10 20 6 0 10 -9 10 -20z m33 0 c-3 -11 -7
-20 -9 -20 -2 0 -4 9 -4 20 0 11 4 20 9 20 5 0 7 -9 4 -20z m-2633 -19 c13
-25 13 -41 0 -21 -7 11 -10 4 -10 -27 0 -24 -4 -43 -10 -43 -5 0 -10 25 -10
55 0 56 11 70 30 36z m50 -37 c0 -38 -4 -54 -12 -52 -6 2 -14 10 -16 18 -3 7
0 10 7 6 7 -5 11 7 11 38 0 25 2 46 5 46 3 0 5 -25 5 -56z m2668 15 c-3 -8 -7
-3 -11 10 -4 17 -3 21 5 13 5 -5 8 -16 6 -23z m-3440 -12 c4 -33 -13 -57 -39
-57 -12 0 -19 -7 -19 -20 0 -11 -4 -20 -10 -20 -6 0 -10 28 -10 64 l0 64 38
-1 c33 -2 37 -5 40 -30z m92 14 c15 -29 13 -31 -25 -31 -26 0 -33 -4 -29 -14
3 -8 18 -17 32 -19 24 -4 23 -4 -6 -6 -25 -1 -34 4 -41 22 -20 52 43 96 69 48z
m104 4 c6 -18 -5 -20 -21 -4 -18 18 -33 1 -33 -37 0 -19 -4 -34 -10 -34 -5 0
-10 20 -10 43 0 43 1 44 34 45 22 1 36 -4 40 -13z m92 4 c3 -6 3 -13 -1 -17
-3 -3 -10 0 -15 8 -13 21 -40 -6 -40 -41 0 -16 -4 -29 -10 -29 -5 0 -10 20
-10 43 0 43 1 44 35 45 19 1 37 -3 41 -9z m97 -11 c17 -26 -7 -68 -38 -68 -33
0 -52 38 -35 69 13 26 57 26 73 -1z m92 11 c4 -5 4 -13 0 -17 -3 -3 -10 0 -14
7 -14 22 -31 3 -31 -35 0 -19 -4 -34 -10 -34 -5 0 -10 19 -10 43 0 40 2 43 29
45 16 1 33 -3 36 -9z m384 -11 c4 -12 6 -30 3 -40 -5 -19 -44 -34 -61 -23 -15
9 -14 72 2 78 27 12 48 6 56 -15z m289 -26 c2 -28 0 -42 -7 -38 -6 4 -8 13 -4
21 3 10 -1 15 -15 15 -28 0 -36 -16 -15 -30 17 -10 16 -11 -2 -8 -32 5 -26 42
8 46 33 4 35 19 5 32 -23 10 -23 10 2 7 22 -2 25 -7 28 -45z m47 8 c4 -17 10
-30 15 -30 5 0 11 13 15 30 6 27 25 53 25 33 -1 -21 -57 -118 -70 -121 -9 -3
-8 1 4 11 18 13 19 18 7 53 -7 22 -15 45 -18 53 -3 8 -1 11 5 7 6 -3 13 -20
17 -36z m185 -11 c0 -21 -4 -39 -10 -39 -5 0 -10 21 -10 46 0 27 4 43 10 39 6
-3 10 -24 10 -46z m62 37 c11 -16 9 -76 -2 -76 -5 0 -10 19 -10 42 0 50 -17
41 -22 -12 -3 -33 -4 -33 -8 10 -4 41 -3 46 15 46 11 0 23 -5 27 -10z m86 2
c22 -22 13 -38 -19 -38 -36 0 -35 -21 2 -31 24 -7 23 -7 -4 -8 -20 -1 -30 6
-38 23 -21 45 26 87 59 54z m39 -55 c-2 -16 -4 -5 -4 22 0 28 2 40 4 28 2 -13
2 -35 0 -50z m71 19 c2 -25 -1 -42 -7 -42 -6 0 -11 19 -11 42 0 50 -17 41 -22
-12 -3 -33 -4 -32 -8 12 -5 44 -4 46 20 45 22 -2 25 -8 28 -45z m76 42 c19 -7
21 -55 4 -72 -18 -18 -46 -14 -58 7 -14 27 -13 37 6 55 17 18 24 19 48 10z
m114 -14 c5 -13 3 -13 -11 -1 -25 20 -45 6 -50 -36 -4 -37 -4 -36 -5 8 -2 46
-2 46 30 45 18 -1 33 -7 36 -16z m62 -19 c0 -29 5 -41 18 -44 9 -3 -1 -5 -23
-5 -22 0 -32 2 -22 5 20 5 24 68 5 76 -8 3 -6 6 5 6 13 1 17 -7 17 -38z m118
-6 c3 -38 1 -41 -24 -43 -15 -1 -31 3 -35 10 -10 16 9 38 32 38 11 0 19 7 19
16 0 12 -7 15 -25 12 -13 -3 -22 -1 -19 4 3 5 16 8 27 6 18 -2 23 -11 25 -43z
m200 12 c4 -33 -13 -57 -39 -57 -10 0 -19 -9 -22 -22 -2 -13 -5 6 -6 42 l-1
66 33 -1 c28 0 32 -4 35 -28z m90 -12 c3 -38 1 -41 -24 -43 -15 -1 -31 3 -35
10 -10 16 9 38 32 38 11 0 19 7 19 16 0 12 -7 15 -25 12 -13 -3 -22 -1 -19 4
3 5 16 8 27 6 18 -2 23 -11 25 -43z m99 25 c4 -12 3 -13 -5 -1 -17 25 -42 5
-42 -34 0 -19 -4 -35 -10 -35 -5 0 -10 20 -10 44 0 43 1 44 32 43 18 -1 33 -8
35 -17z m91 8 c7 -7 12 -26 12 -43 0 -28 -3 -31 -32 -30 -26 0 -33 4 -33 20 0
14 8 21 27 25 30 6 26 24 -7 33 -20 5 -20 5 1 6 11 0 25 -4 32 -11z m290 -33
c3 -38 1 -41 -24 -43 -15 -1 -31 3 -35 10 -10 16 9 38 32 38 11 0 19 7 19 16
0 12 -7 15 -25 12 -13 -3 -22 -1 -19 4 3 5 16 8 27 6 18 -2 23 -11 25 -43z
m176 35 c-12 -5 -25 -13 -29 -19 -11 -19 5 -51 28 -52 18 -1 19 -2 4 -6 -24
-6 -47 14 -47 41 0 28 18 46 45 45 19 0 19 0 -1 -9z m116 -4 c28 -35 -11 -93
-47 -70 -36 22 -23 84 17 84 10 0 23 -7 30 -14z m188 2 c7 -7 12 -26 12 -43 0
-28 -3 -31 -32 -30 -26 0 -33 4 -33 20 0 14 8 21 27 25 30 6 26 24 -7 33 -20
5 -20 5 1 6 11 0 25 -4 32 -11z m272 -3 c0 -8 -4 -15 -9 -15 -13 0 -22 16 -14
24 11 11 23 6 23 -9z m-3003 -47 c-2 -13 -4 -5 -4 17 -1 22 1 32 4 23 2 -10 2
-28 0 -40z m3009 -13 c8 -19 -13 -45 -35 -44 -10 0 -11 2 -3 6 6 2 12 16 12
29 0 27 17 33 26 9z m-2977 -49 c-3 -3 -11 5 -18 17 -13 21 -12 21 5 5 10 -10
16 -20 13 -22z m-589 -87 c0 -5 5 -7 10 -4 6 3 10 1 10 -4 0 -6 -6 -11 -12
-12 -10 0 -10 -2 0 -6 6 -2 12 -9 12 -14 0 -6 -4 -8 -9 -5 -5 4 -12 0 -15 -6
-5 -11 -7 -11 -12 0 -3 6 -10 10 -15 6 -5 -3 -9 0 -9 5 0 6 6 11 13 12 10 0
10 2 0 6 -7 2 -13 9 -13 14 0 6 5 7 10 4 6 -3 10 -1 10 4 0 6 5 11 10 11 6 0
10 -5 10 -11z m979 -23 c14 -17 4 -43 -25 -67 -16 -13 -15 -15 12 -20 27 -6
27 -7 -8 -8 -45 -1 -46 4 -12 40 30 32 27 65 -6 56 -11 -3 -18 -1 -14 4 8 14
40 11 53 -5z m-859 -25 c15 -29 13 -31 -25 -31 -26 0 -33 -4 -29 -14 3 -8 18
-17 32 -19 24 -4 23 -4 -6 -6 -25 -1 -34 4 -41 22 -20 52 43 96 69 48z m104 4
c6 -18 -5 -20 -21 -4 -18 18 -33 1 -33 -37 0 -19 -4 -34 -10 -34 -5 0 -10 20
-10 43 0 43 1 44 34 45 22 1 36 -4 40 -13z m92 4 c3 -6 3 -13 -1 -17 -3 -3
-10 0 -15 8 -13 21 -40 -6 -40 -41 0 -16 -4 -29 -10 -29 -5 0 -10 20 -10 43 0
43 1 44 35 45 19 1 37 -3 41 -9z m97 -11 c17 -26 -7 -68 -38 -68 -33 0 -52 38
-35 69 13 26 57 26 73 -1z m92 11 c4 -5 4 -13 0 -17 -3 -3 -10 0 -14 7 -14 22
-31 3 -31 -35 0 -19 -4 -34 -10 -34 -5 0 -10 19 -10 43 0 40 2 43 29 45 16 1
33 -3 36 -9z m555 -4 c0 -8 -4 -15 -9 -15 -13 0 -22 16 -14 24 11 11 23 6 23
-9z m-377 -12 c-13 -2 -33 -2 -45 0 -13 2 -3 4 22 4 25 0 35 -2 23 -4z m190
-20 c-7 -2 -21 -2 -30 0 -10 3 -4 5 12 5 17 0 24 -2 18 -5z m-190 -10 c-13 -2
-33 -2 -45 0 -13 2 -3 4 22 4 25 0 35 -2 23 -4z m382 -13 c9 -15 -14 -50 -33
-50 -14 0 -14 2 -3 9 8 5 11 16 8 24 -9 24 15 38 28 17z m-862 -171 c22 -2 22
-2 0 -6 -19 -4 -23 -11 -23 -38 0 -27 5 -35 23 -38 19 -5 19 -5 -3 -4 -21 2
-25 8 -28 40 -2 26 -8 37 -20 38 -15 1 -15 2 1 6 9 2 18 12 18 21 1 15 2 15 6
0 2 -10 14 -19 26 -19z m438 -37 c-4 -67 -11 -66 -11 3 0 32 3 55 7 51 4 -4 6
-28 4 -54z m59 3 c0 -53 -11 -72 -24 -39 -3 8 -2 12 4 9 6 -4 10 12 10 39 0
25 2 46 5 46 3 0 5 -25 5 -55z m62 -40 c14 1 24 -3 22 -7 -8 -12 -38 -10 -52
4 -7 7 -11 32 -10 58 l1 45 6 -50 c6 -46 8 -50 33 -50z m35 33 c-2 -13 -4 -3
-4 22 0 25 2 35 4 23 2 -13 2 -33 0 -45z m71 -41 c25 -4 24 -4 -5 -6 l-33 -1
2 58 2 57 3 -52 c4 -47 6 -52 31 -56z m100 0 c25 -4 24 -4 -5 -6 l-33 -1 2 58
2 57 3 -52 c4 -47 6 -52 31 -56z m-997 35 c-4 -54 -11 -53 -11 3 0 27 3 45 7
41 4 -4 6 -24 4 -44z m54 37 c11 -17 2 -18 -19 -3 -17 12 -17 14 -4 14 9 0 20
-5 23 -11z m83 -1 c22 -22 13 -38 -19 -38 -39 0 -34 -22 7 -31 28 -6 28 -7 4
-8 -15 0 -31 4 -38 11 -24 24 -8 78 23 78 6 0 16 -5 23 -12z m170 -66 c11 2
19 17 23 43 l6 40 2 -46 c1 -44 0 -46 -26 -45 -26 1 -28 4 -29 44 l-1 42 4
-41 c3 -31 8 -40 21 -37z m129 58 c4 -12 3 -13 -5 -1 -17 25 -42 5 -42 -34 0
-19 -4 -35 -10 -35 -5 0 -10 19 -10 43 0 41 1 43 32 42 19 0 33 -6 35 -15z
m89 -30 l1 -45 -4 43 c-3 34 -8 43 -21 40 -11 -2 -19 -17 -23 -43 l-6 -40 -2
46 c-1 44 0 46 27 45 25 -1 27 -4 28 -46z m564 35 c0 -8 -4 -15 -9 -15 -13 0
-22 16 -14 24 11 11 23 6 23 -9z m5 -55 c9 -15 -14 -50 -33 -50 -14 0 -14 2
-3 9 8 5 11 16 8 24 -9 24 15 38 28 17z m-1458 -166 c1 -25 0 -26 -4 -4 -3 14
-10 29 -17 33 -7 6 -6 7 4 4 8 -2 16 -16 17 -33z m19 -58 c-8 -6 -16 -24 -18
-40 -2 -16 -9 -31 -16 -32 -7 -1 -8 0 -2 3 5 2 10 18 10 33 0 16 5 32 10 35 6
4 8 11 5 16 -3 5 1 6 10 3 14 -6 14 -8 1 -18z m184 -195 c0 -38 4 -61 13 -64
6 -3 -6 -5 -28 -5 -22 0 -32 2 -22 5 13 4 17 15 17 58 0 33 -5 55 -12 58 -7 3
-3 6 10 6 20 1 22 -3 22 -58z m405 52 c-38 -10 -47 -42 -12 -44 l22 -2 -22 -4
c-19 -4 -23 -12 -25 -41 l-1 -37 -4 38 c-3 26 -9 37 -21 38 -15 1 -15 2 1 6 9
2 17 12 17 22 0 24 9 31 39 30 21 -1 22 -2 6 -6z m75 -3 c0 -5 -4 -10 -10 -10
-5 0 -10 5 -10 10 0 6 5 10 10 10 6 0 10 -4 10 -10z m290 -49 c0 -38 4 -61 13
-64 6 -3 -6 -5 -28 -5 -22 0 -32 2 -22 5 13 4 17 15 17 58 0 33 -5 55 -12 58
-7 3 -3 6 10 6 20 1 22 -3 22 -58z m351 -19 c-4 -67 -11 -66 -11 3 0 32 3 55
7 51 4 -4 6 -28 4 -54z m59 3 c0 -53 -11 -72 -24 -39 -3 8 -2 12 4 9 6 -4 10
12 10 39 0 25 2 46 5 46 3 0 5 -25 5 -55z m54 -43 c10 -2 23 2 28 10 8 10 9
10 5 -2 -5 -20 -34 -25 -52 -10 -10 8 -14 29 -13 59 l1 46 6 -50 c5 -38 10
-51 25 -53z m114 -5 c25 -4 24 -4 -5 -6 l-33 -1 2 58 2 57 3 -52 c4 -47 6 -52
31 -56z m90 0 c25 -4 24 -4 -5 -6 l-33 -1 2 58 2 57 3 -52 c4 -47 6 -52 31
-56z m-1153 68 l30 -25 -30 -25 c-39 -32 -55 -32 -25 0 l23 25 -23 25 c-30 32
-14 32 25 0z m-460 5 c4 -6 -1 -7 -11 -3 -11 4 -22 -1 -30 -12 -18 -24 0 -59
27 -52 10 3 17 1 13 -4 -8 -13 -38 -11 -52 3 -15 15 -15 51 0 66 15 15 45 16
53 2z m95 -4 c28 -35 -11 -93 -47 -70 -36 22 -23 84 17 84 10 0 23 -7 30 -14z
m198 -32 c3 -40 2 -41 -30 -42 -18 0 -36 4 -40 11 -9 15 10 37 33 37 11 0 19
7 19 16 0 12 -7 15 -25 12 -13 -3 -22 -1 -19 4 3 5 18 8 32 6 24 -3 27 -8 30
-44z m362 7 c0 -22 5 -42 13 -44 6 -3 -6 -5 -28 -5 -22 0 -32 2 -22 5 20 5 24
68 5 76 -7 3 -3 6 10 6 19 1 22 -4 22 -38z m118 -8 c2 -26 -1 -43 -7 -43 -6 0
-11 18 -11 41 0 52 -24 48 -28 -4 -4 -52 -22 -46 -22 7 0 42 1 43 33 42 30 -1
32 -3 35 -43z m90 35 c7 -7 12 -26 12 -44 0 -31 -2 -32 -37 -31 -31 2 -38 6
-38 22 0 14 8 21 28 23 32 4 31 27 -1 26 -12 0 -19 3 -16 8 8 12 38 10 52 -4z
m852 -3 c0 -8 -4 -15 -9 -15 -13 0 -22 16 -14 24 11 11 23 6 23 -9z m-567 -12
c-13 -2 -33 -2 -45 0 -13 2 -3 4 22 4 25 0 35 -2 23 -4z m-775 -20 c-10 -2
-26 -2 -35 0 -10 3 -2 5 17 5 19 0 27 -2 18 -5z m775 -10 c-13 -2 -33 -2 -45
0 -13 2 -3 4 22 4 25 0 35 -2 23 -4z m572 -13 c9 -15 -14 -50 -33 -50 -14 0
-14 2 -3 9 8 5 11 16 8 24 -9 24 15 38 28 17z m-1545 -189 c0 -38 4 -61 13
-64 6 -3 -6 -5 -28 -5 -22 0 -32 2 -22 5 13 4 17 15 17 58 0 33 -5 55 -12 58
-7 3 -3 6 10 6 20 1 22 -3 22 -58z m1269 25 c17 -20 10 -77 -11 -90 -26 -16
-52 4 -56 43 -4 36 12 61 38 61 10 0 23 -6 29 -14z m-984 -21 l30 -25 -30 -25
c-39 -32 -55 -32 -25 0 l23 25 -23 25 c-30 32 -14 32 25 0z m-460 5 c4 -6 -1
-7 -11 -3 -11 4 -22 -1 -30 -12 -18 -24 0 -59 27 -52 10 3 17 1 13 -4 -8 -13
-38 -11 -52 3 -15 15 -15 51 0 66 15 15 45 16 53 2z m95 -4 c28 -35 -11 -93
-47 -70 -36 22 -23 84 17 84 10 0 23 -7 30 -14z m198 -32 c3 -40 2 -41 -30
-42 -18 0 -36 4 -40 11 -9 15 10 37 33 37 11 0 19 7 19 16 0 12 -7 15 -25 12
-13 -3 -22 -1 -19 4 3 5 18 8 32 6 24 -3 27 -8 30 -44z m286 37 c4 -5 -2 -7
-12 -4 -10 2 -25 -3 -32 -12 -18 -22 -1 -50 29 -49 14 0 18 -3 12 -9 -5 -5
-21 -7 -35 -3 -45 11 -31 86 15 86 10 0 20 -4 23 -9z m46 -31 c0 -59 33 -48
43 15 3 22 4 18 6 -16 1 -46 1 -46 -31 -45 -31 1 -33 3 -36 44 -2 25 1 42 7
42 6 0 11 -18 11 -40z m154 25 c3 -8 1 -15 -3 -15 -5 0 -11 5 -13 12 -9 26
-38 -2 -38 -37 0 -19 -4 -35 -10 -35 -5 0 -10 20 -10 43 0 43 1 44 34 45 22 1
36 -4 40 -13z m80 6 c4 -5 -2 -7 -13 -4 -30 8 -35 -16 -6 -27 35 -13 30 -44
-8 -48 -15 -2 -27 1 -27 6 0 6 8 8 19 5 30 -8 35 16 7 27 -25 9 -34 29 -19 43
9 10 41 8 47 -2z m104 -3 c31 -31 3 -82 -40 -76 -18 2 -24 10 -26 37 -5 46 36
69 66 39z m100 -8 c4 -13 3 -13 -11 -2 -23 19 -37 6 -37 -34 0 -19 -4 -34 -10
-34 -5 0 -10 20 -10 44 0 43 1 44 32 43 18 -1 33 -8 36 -17z m454 5 c0 -5 -5
-11 -11 -13 -6 -2 -11 4 -11 13 0 9 5 15 11 13 6 -2 11 -8 11 -13z m-269 -12
c-13 -2 -33 -2 -45 0 -13 2 -3 4 22 4 25 0 35 -2 23 -4z m-875 -20 c-10 -2
-26 -2 -35 0 -10 3 -2 5 17 5 19 0 27 -2 18 -5z m875 -10 c-13 -2 -33 -2 -45
0 -13 2 -3 4 22 4 25 0 35 -2 23 -4z m277 -28 c0 -14 -2 -25 -4 -25 -2 0 -13
-3 -23 -7 -15 -6 -16 -4 -5 9 7 8 10 23 6 32 -4 11 -1 16 10 16 10 0 16 -9 16
-25z m-1350 -174 c0 -38 4 -61 13 -64 6 -3 -6 -5 -28 -5 -22 0 -32 2 -22 5 13
4 17 15 17 58 0 33 -5 55 -12 58 -7 3 -3 6 10 6 20 1 22 -3 22 -58z m550 39
c0 -13 7 -20 20 -20 24 0 42 -32 33 -57 -9 -23 -23 -33 -50 -33 -22 0 -23 4
-23 65 0 37 4 65 10 65 6 0 10 -9 10 -20z m373 -47 c-7 -71 -11 -75 -12 -10
-1 31 3 57 8 57 5 0 6 -21 4 -47z m63 -61 c-11 -10 -12 3 -7 58 l6 55 3 -54
c2 -29 1 -56 -2 -59z m57 10 c18 2 23 11 28 53 l7 50 -2 -49 c-1 -52 -19 -75
-50 -63 -12 5 -16 18 -14 59 l2 53 3 -53 c4 -48 6 -53 26 -50z m115 -5 c25 -4
24 -4 -5 -6 l-33 -1 2 58 2 57 3 -52 c4 -47 6 -52 31 -56z m90 0 c25 -4 24 -4
-5 -6 l-33 -1 2 58 2 57 3 -52 c4 -47 6 -52 31 -56z m-963 68 l30 -25 -30 -25
c-39 -32 -55 -32 -25 0 l23 25 -23 25 c-30 32 -14 32 25 0z m-460 5 c4 -6 -1
-7 -11 -3 -11 4 -22 -1 -30 -12 -18 -24 0 -59 27 -52 10 3 17 1 13 -4 -8 -13
-38 -11 -52 3 -15 15 -15 51 0 66 15 15 45 16 53 2z m95 -4 c28 -35 -11 -93
-47 -70 -36 22 -23 84 17 84 10 0 23 -7 30 -14z m198 -32 c3 -40 2 -41 -30
-42 -18 0 -36 4 -40 11 -9 15 10 37 33 37 11 0 19 7 19 16 0 12 -7 15 -25 12
-13 -3 -22 -1 -19 4 3 5 18 8 32 6 24 -3 27 -8 30 -44z m286 37 c4 -5 -2 -7
-12 -4 -10 2 -25 -3 -32 -12 -18 -22 -1 -50 29 -49 14 0 18 -3 12 -9 -5 -5
-21 -7 -35 -3 -45 11 -31 86 15 86 10 0 20 -4 23 -9z m94 -37 c3 -40 3 -41
-30 -40 -26 1 -33 5 -33 21 0 14 8 21 28 23 32 4 31 27 -1 26 -12 0 -19 3 -16
8 3 5 16 8 27 6 18 -2 23 -11 25 -44z m844 31 c0 -5 -5 -11 -11 -13 -6 -2 -11
4 -11 13 0 9 5 15 11 13 6 -2 11 -8 11 -13z m-559 -12 c-13 -2 -33 -2 -45 0
-13 2 -3 4 22 4 25 0 35 -2 23 -4z m-585 -20 c-10 -2 -26 -2 -35 0 -10 3 -2 5
17 5 19 0 27 -2 18 -5z m585 -10 c-13 -2 -33 -2 -45 0 -13 2 -3 4 22 4 25 0
35 -2 23 -4z m567 -28 c0 -14 -2 -25 -4 -25 -2 0 -13 -3 -23 -7 -15 -6 -16 -4
-5 9 7 8 10 23 6 32 -4 11 -1 16 10 16 10 0 16 -9 16 -25z m-1532 -129 c16 5
16 5 0 -8 -15 -13 -15 -15 0 -27 16 -11 16 -12 0 -7 -10 3 -18 0 -18 -7 0 -8
-3 -8 -9 2 -5 7 -15 11 -22 7 -8 -4 -6 -1 3 6 15 11 15 13 0 25 -16 12 -16 13
1 7 10 -4 17 -1 18 7 0 10 2 10 5 2 3 -7 13 -10 22 -7z m871 -20 c17 -20 10
-77 -11 -90 -26 -16 -52 4 -56 43 -4 36 12 61 38 61 10 0 23 -6 29 -14z m-761
-33 c3 -20 -1 -23 -28 -23 -40 0 -36 -22 6 -31 l29 -7 -33 -1 c-40 -1 -61 33
-42 68 16 30 64 26 68 -6z m98 16 c3 -6 3 -13 -1 -17 -3 -3 -10 0 -15 8 -13
21 -40 -6 -40 -41 0 -16 -4 -29 -10 -29 -5 0 -10 20 -10 43 0 43 1 44 35 45
19 1 37 -3 41 -9z m98 -4 c6 -18 -5 -20 -21 -4 -18 18 -33 1 -33 -37 0 -19 -4
-34 -10 -34 -5 0 -10 20 -10 43 0 43 1 44 34 45 22 1 36 -4 40 -13z m84 6 c18
-11 11 -61 -10 -75 -23 -14 -52 3 -56 33 -6 40 32 64 66 42z m108 -2 c3 -6 3
-13 -1 -17 -3 -3 -10 0 -15 7 -15 25 -40 4 -40 -34 0 -19 -4 -35 -10 -35 -5 0
-10 20 -10 43 0 43 1 44 35 45 19 1 37 -3 41 -9z m454 -4 c0 -8 -4 -15 -9 -15
-13 0 -22 16 -14 24 11 11 23 6 23 -9z m-277 -12 c-13 -2 -33 -2 -45 0 -13 2
-3 4 22 4 25 0 35 -2 23 -4z m0 -30 c-13 -2 -33 -2 -45 0 -13 2 -3 4 22 4 25
0 35 -2 23 -4z m282 -13 c9 -15 -14 -50 -33 -50 -14 0 -14 2 -3 9 8 5 11 16 8
24 -9 24 15 38 28 17z m-105 -179 c0 -48 3 -60 18 -64 9 -3 -3 -5 -28 -5 -25
0 -37 2 -27 5 13 4 17 15 17 58 0 33 -5 55 -12 58 -7 3 -3 6 10 6 20 1 22 -3
22 -58z m-667 18 c22 -2 22 -2 0 -6 -18 -3 -23 -11 -23 -34 0 -21 6 -32 23
-39 22 -10 22 -10 -3 -7 -21 2 -26 8 -28 37 -2 19 -9 38 -15 42 -9 6 -9 8 1 8
6 0 13 8 13 18 1 16 2 16 6 0 2 -10 14 -19 26 -19z m-176 -19 c4 -12 3 -13 -5
-1 -17 25 -42 5 -42 -34 0 -19 -4 -35 -10 -35 -5 0 -10 19 -10 43 0 41 1 43
32 42 19 0 33 -6 35 -15z m93 1 c15 -29 13 -31 -25 -31 -26 0 -33 -4 -29 -14
3 -8 18 -17 32 -19 l27 -4 -28 -2 c-20 -1 -30 5 -38 23 -22 48 36 93 61 47z
m154 -61 c19 0 34 20 39 55 3 23 4 19 6 -15 1 -45 1 -46 -31 -45 -32 0 -33 1
-34 43 l-1 42 4 -40 c3 -24 9 -40 17 -40z m87 32 c-4 -54 -11 -53 -11 3 0 27
3 45 7 41 4 -4 6 -24 4 -44z m54 37 c11 -17 2 -18 -19 -3 -17 12 -17 14 -4 14
9 0 20 -5 23 -11z m35 -44 l-8 -40 -1 50 c-1 29 3 45 8 40 5 -6 6 -28 1 -50z
m56 5 c1 -34 0 -36 -3 -10 -2 19 -12 41 -21 48 -16 13 -15 14 3 10 16 -3 20
-12 21 -48z m194 42 c0 -5 -10 -8 -22 -8 -19 1 -23 -4 -23 -29 0 -25 4 -30 23
-29 12 0 22 -3 22 -8 0 -16 -52 -4 -63 14 -17 26 7 68 38 68 14 0 25 -4 25 -8z
m103 -14 c17 -26 -7 -68 -38 -68 -33 0 -52 38 -35 69 13 26 57 26 73 -1z m185
10 c7 -7 12 -26 12 -44 0 -31 -2 -32 -37 -31 -31 2 -38 6 -38 22 0 14 8 21 28
23 32 4 31 27 -1 26 -12 0 -19 3 -16 8 8 12 38 10 52 -4z m74 -3 c0 -5 -5 -11
-11 -13 -6 -2 -11 4 -11 13 0 9 5 15 11 13 6 -2 11 -8 11 -13z m8 -63 c0 -22
-19 -42 -39 -42 -14 1 -14 2 1 10 10 6 14 18 11 30 -4 14 0 20 11 20 9 0 16
-8 16 -18z m-1452 -160 c2 -18 10 -36 18 -39 13 -5 13 -7 0 -17 -8 -6 -16 -24
-18 -41 -2 -21 -9 -31 -23 -32 -11 -2 -14 0 -7 3 6 3 12 19 12 34 0 16 5 32
10 35 7 4 7 12 0 25 -5 10 -10 28 -10 39 0 10 -6 22 -12 25 -7 3 -4 5 7 3 15
-2 21 -11 23 -35z"/>
<path d="M1065 3471 c-8 -26 4 -51 25 -51 10 0 21 7 24 16 10 25 -3 54 -24 54
-10 0 -21 -8 -25 -19z"/>
<path d="M1265 3439 c-4 -6 -4 -13 -1 -16 8 -8 36 5 36 17 0 13 -27 13 -35 -1z"/>
<path d="M1746 3475 c-4 -11 1 -15 19 -15 18 0 23 4 19 15 -4 8 -12 15 -19 15
-7 0 -15 -7 -19 -15z"/>
<path d="M1845 3439 c-4 -6 -4 -13 -1 -16 8 -8 36 5 36 17 0 13 -27 13 -35 -1z"/>
<path d="M2224 3476 c-10 -26 0 -51 21 -51 16 0 20 7 20 30 0 33 -30 49 -41
21z"/>
<path d="M2420 3434 c0 -9 7 -14 17 -12 25 5 28 28 4 28 -12 0 -21 -6 -21 -16z"/>
<path d="M3097 3484 c-13 -13 -7 -24 14 -24 11 0 19 5 17 12 -5 14 -22 21 -31
12z"/>
<path d="M3381 3471 c-14 -25 -3 -53 18 -49 10 2 16 13 16 32 0 35 -20 45 -34
17z"/>
<path d="M1454 3006 c-10 -26 0 -51 21 -51 16 0 20 7 20 30 0 33 -30 49 -41
21z"/>
<path d="M1650 2964 c0 -9 7 -14 17 -12 25 5 28 28 4 28 -12 0 -21 -6 -21 -16z"/>
<path d="M2034 3006 c-9 -23 0 -51 17 -54 19 -4 32 23 24 49 -7 22 -33 25 -41
5z"/>
<path d="M2225 2971 c-3 -5 -1 -12 5 -16 12 -7 30 2 30 16 0 12 -27 12 -35 0z"/>
<path d="M3474 3006 c-10 -26 0 -51 21 -51 16 0 20 7 20 30 0 33 -30 49 -41
21z"/>
<path d="M3670 2964 c0 -9 7 -14 17 -12 25 5 28 28 4 28 -12 0 -21 -6 -21 -16z"/>
<path d="M4155 2969 c-4 -6 -4 -13 -1 -16 8 -8 36 5 36 17 0 13 -27 13 -35 -1z"/>
<path d="M4441 3001 c-14 -25 -3 -53 18 -49 10 2 16 13 16 32 0 35 -20 45 -34
17z"/>
<path d="M5017 3014 c-14 -14 -6 -24 19 -24 16 0 24 5 22 13 -5 14 -31 21 -41
11z"/>
<path d="M6174 3006 c-9 -23 0 -51 16 -51 10 0 15 10 15 29 0 32 -21 47 -31
22z"/>
<path d="M6365 2971 c-3 -5 -1 -12 5 -16 12 -7 30 2 30 16 0 12 -27 12 -35 0z"/>
<path d="M1164 2766 c-10 -26 0 -51 21 -51 16 0 20 7 20 30 0 33 -30 49 -41
21z"/>
<path d="M1360 2724 c0 -9 7 -14 17 -12 25 5 28 28 4 28 -12 0 -21 -6 -21 -16z"/>
<path d="M1082 2298 c-7 -7 -12 -23 -12 -36 0 -38 34 -24 38 16 3 33 -6 40
-26 20z"/>
<path d="M1167 2295 c-5 -11 0 -15 19 -15 16 0 24 5 22 13 -7 18 -35 20 -41 2z"/>
<path d="M1454 2296 c-10 -26 0 -51 21 -51 16 0 20 7 20 30 0 33 -30 49 -41
21z"/>
<path d="M1934 2296 c-10 -26 0 -51 21 -51 16 0 20 7 20 30 0 33 -30 49 -41
21z"/>
<path d="M2617 2303 c-14 -13 -6 -23 18 -23 18 0 23 4 19 15 -6 16 -26 20 -37
8z"/>
<path d="M2804 2296 c-10 -26 0 -51 21 -51 16 0 20 7 20 30 0 33 -30 49 -41
21z"/>
<path d="M3090 2254 c0 -9 7 -14 17 -12 25 5 28 28 4 28 -12 0 -21 -6 -21 -16z"/>
<path d="M3292 2298 c-7 -7 -12 -23 -12 -36 0 -19 5 -23 23 -20 17 2 22 10 22
32 0 32 -14 43 -33 24z"/>
<path d="M3380 2254 c0 -9 7 -14 17 -12 25 5 28 28 4 28 -12 0 -21 -6 -21 -16z"/>
<path d="M3575 2259 c-4 -6 -5 -13 -2 -16 8 -7 47 7 47 18 0 13 -37 11 -45 -2z"/>
<path d="M3860 2254 c0 -9 7 -14 17 -12 25 5 28 28 4 28 -12 0 -21 -6 -21 -16z"/>
<path d="M4145 2291 c-8 -26 4 -51 25 -51 21 0 33 25 25 51 -8 24 -42 24 -50
0z"/>
<path d="M4345 2259 c-4 -6 -5 -13 -2 -16 8 -7 47 7 47 18 0 13 -37 11 -45 -2z"/>
<path d="M1167 2055 c-5 -11 0 -15 19 -15 16 0 24 5 22 13 -7 18 -35 20 -41 2z"/>
<path d="M1454 2056 c-10 -26 0 -51 21 -51 16 0 20 7 20 30 0 33 -30 49 -41
21z"/>
<path d="M1167 1824 c-14 -14 -6 -24 19 -24 16 0 24 5 22 13 -5 14 -31 21 -41
11z"/>
<path d="M781 1341 c-14 -25 -3 -53 18 -49 10 2 16 13 16 32 0 35 -20 45 -34
17z"/>
<path d="M975 1311 c-3 -5 -1 -12 5 -16 12 -7 30 2 30 16 0 12 -27 12 -35 0z"/>
<path d="M1550 1304 c0 -9 7 -14 17 -12 25 5 28 28 4 28 -12 0 -21 -6 -21 -16z"/>
<path d="M2130 1125 c-17 -21 -3 -77 18 -73 10 2 18 14 20 26 3 22 2 23 -20
11 l-23 -12 23 25 c12 13 19 28 15 31 -10 11 -19 8 -33 -8z"/>
<path d="M781 1101 c-14 -25 -3 -53 18 -49 10 2 16 13 16 32 0 35 -20 45 -34
17z"/>
<path d="M975 1071 c-3 -5 -1 -12 5 -16 12 -7 30 2 30 16 0 12 -27 12 -35 0z"/>
<path d="M1646 1102 c-9 -27 3 -54 23 -50 22 5 22 62 -1 66 -9 2 -19 -5 -22
-16z"/>
<path d="M1467 873 c-4 -3 -7 -19 -7 -35 0 -35 27 -38 36 -4 8 35 -10 59 -29
39z"/>
<path d="M781 861 c-14 -25 -3 -53 18 -49 10 2 16 13 16 32 0 35 -20 45 -34
17z"/>
<path d="M975 831 c-3 -5 -1 -12 5 -16 12 -7 30 2 30 16 0 12 -27 12 -35 0z"/>
<path d="M1360 824 c0 -9 7 -14 17 -12 25 5 28 28 4 28 -12 0 -21 -6 -21 -16z"/>
<path d="M1550 639 c-13 -24 -5 -38 12 -21 7 7 17 12 23 12 5 -1 0 -9 -13 -20
-13 -11 -21 -24 -17 -30 20 -32 53 20 36 56 -13 30 -27 30 -41 3z"/>
<path d="M786 625 c-4 -11 1 -15 19 -15 18 0 23 4 19 15 -4 8 -12 15 -19 15
-7 0 -15 -7 -19 -15z"/>
<path d="M1074 626 c-9 -23 0 -51 16 -51 10 0 15 10 15 29 0 32 -21 47 -31 22z"/>
<path d="M776 395 c-4 -11 2 -15 24 -15 22 0 28 4 24 15 -4 8 -14 15 -24 15
-10 0 -20 -7 -24 -15z"/>
<path d="M1454 396 c-10 -26 0 -51 21 -51 16 0 20 7 20 30 0 33 -30 49 -41 21z"/>
<path d="M1650 354 c0 -9 7 -14 17 -12 25 5 28 28 4 28 -12 0 -21 -6 -21 -16z"/>
</g>
</svg>
